<?xml version="1.0" standalone="no"?>
<!DOCTYPE svg PUBLIC "-//W3C//DTD SVG 20010904//EN"
 "http://www.w3.org/TR/2001/REC-SVG-20010904/DTD/svg10.dtd">
<svg version="1.0" xmlns="http://www.w3.org/2000/svg"
 width="225.000000pt" height="225.000000pt" viewBox="0 0 225.000000 225.000000"
 preserveAspectRatio="xMidYMid meet">

<g transform="translate(0.000000,225.000000) scale(0.100000,-0.100000)"
fill="#000000" stroke="none">
<path d="M890 2113 c-74 -7 -217 -45 -270 -71 -45 -22 -55 -32 -55 -52 0 -33
24 -31 135 9 111 40 254 58 344 45 77 -12 103 -2 92 33 -10 32 -122 49 -246
36z"/>
<path d="M1170 2065 c-20 -24 -4 -43 55 -68 28 -12 76 -37 108 -54 67 -39 73
-39 87 -13 15 27 -21 60 -114 105 -93 45 -119 51 -136 30z"/>
<path d="M458 1953 c-31 -20 -40 -36 -32 -58 15 -39 99 3 92 46 -4 30 -25 34
-60 12z"/>
<path d="M1473 1893 c-18 -7 -16 -48 3 -64 11 -9 20 -10 32 -2 24 15 27 45 6
60 -19 14 -22 14 -41 6z"/>
<path d="M334 1838 c-110 -117 -168 -273 -167 -448 0 -185 62 -355 173 -474
l60 -64 0 -161 c0 -158 7 -201 33 -201 6 0 84 42 172 92 l160 93 170 0 c190 0
256 13 380 70 83 38 182 110 191 138 9 29 -23 52 -47 34 -111 -80 -176 -117
-255 -143 -85 -28 -97 -29 -274 -29 l-185 -1 -132 -77 c-73 -42 -135 -77 -138
-77 -3 0 -5 63 -5 141 l0 141 -52 57 c-99 108 -150 208 -174 341 -34 187 5
345 121 499 38 50 46 67 38 80 -17 27 -37 23 -69 -11z"/>
<path d="M1570 1755 c-11 -13 -7 -28 23 -90 53 -107 70 -189 64 -305 -8 -130
-36 -211 -122 -356 -16 -27 -17 -34 -6 -48 7 -9 19 -16 27 -16 19 0 58 55 98
140 54 115 70 188 70 320 0 97 -5 128 -27 195 -29 88 -79 175 -101 175 -7 0
-19 -7 -26 -15z"/>
<path d="M1842 1508 c-18 -18 -16 -26 37 -92 27 -34 61 -84 76 -111 14 -27 33
-54 41 -58 18 -10 44 8 44 31 0 44 -142 242 -174 242 -7 0 -17 -5 -24 -12z"/>
<path d="M2011 1206 c-17 -20 -3 -64 22 -72 26 -8 47 18 39 49 -9 37 -40 48
-61 23z"/>
<path d="M2032 1078 c-7 -7 -12 -32 -12 -57 0 -71 -27 -167 -67 -245 -27 -52
-63 -97 -135 -169 l-98 -98 0 -139 c0 -77 -2 -140 -4 -140 -2 0 -66 39 -142
86 l-139 86 -95 -6 c-52 -3 -124 -1 -160 5 -140 22 -147 22 -154 4 -18 -49 46
-68 237 -72 l158 -3 153 -95 c178 -110 181 -111 201 -95 12 10 15 44 15 179
l0 166 69 62 c87 79 156 182 192 287 34 97 48 218 29 241 -15 18 -32 19 -48 3z"/>
<path d="M731 606 c-9 -11 -10 -20 -1 -36 14 -25 152 -137 197 -158 31 -15 35
-15 50 0 23 23 11 42 -50 81 -29 19 -77 55 -106 81 -55 49 -71 55 -90 32z"/>
</g>
</svg>
